<svg xmlns="http://www.w3.org/2000/svg" width="1440" height="900" viewBox="0 0 1440 900" role="img" aria-labelledby="title desc">
  <title id="title">Tasku Calendar Placeholder</title>
  <desc id="desc">Placeholder artwork for the Tasku calendar screenshot.</desc>
  <rect width="1440" height="900" fill="#0b1120" />
  <rect x="80" y="80" width="1280" height="740" rx="28" fill="#111827" stroke="#334155" />
  <text x="120" y="140" fill="#e2e8f0" font-family="Arial, sans-serif" font-size="42" font-weight="700">Tasku Calendar View</text>
  <text x="120" y="190" fill="#94a3b8" font-family="Arial, sans-serif" font-size="24">Replace with month or week planning screenshot.</text>
  <g fill="#1e293b">
    <rect x="120" y="250" width="170" height="90" rx="16" />
    <rect x="310" y="250" width="170" height="90" rx="16" />
    <rect x="500" y="250" width="170" height="90" rx="16" />
    <rect x="690" y="250" width="170" height="90" rx="16" />
    <rect x="880" y="250" width="170" height="90" rx="16" />
    <rect x="1070" y="250" width="170" height="90" rx="16" />
    <rect x="120" y="360" width="170" height="120" rx="16" />
    <rect x="310" y="360" width="170" height="120" rx="16" fill="#1d4ed8" />
    <rect x="500" y="360" width="170" height="120" rx="16" />
    <rect x="690" y="360" width="170" height="120" rx="16" fill="#0f766e" />
    <rect x="880" y="360" width="170" height="120" rx="16" />
    <rect x="1070" y="360" width="170" height="120" rx="16" fill="#7c3aed" />
  </g>
</svg>
